<svg xmlns="http://www.w3.org/2000/svg" width="1280" height="340" viewBox="0 0 1280 340" fill="none">

  <defs>
    <linearGradient id="main" x1="0" y1="40" x2="0" y2="210" gradientUnits="userSpaceOnUse">
      <stop offset="0" stop-color="#FDFEFE"/>
      <stop offset="0.12" stop-color="#D7DDE2"/>
      <stop offset="0.34" stop-color="#9099A3"/>
      <stop offset="0.52" stop-color="#5B636C"/>
      <stop offset="0.76" stop-color="#C5CDD4"/>
      <stop offset="1" stop-color="#7D8791"/>
    </linearGradient>
    <linearGradient id="low" x1="0" y1="40" x2="0" y2="210" gradientUnits="userSpaceOnUse">
      <stop offset="0" stop-color="#FFFFFF" stop-opacity="0.10"/>
      <stop offset="1" stop-color="#20262C" stop-opacity="0.55"/>
    </linearGradient>
    <linearGradient id="hi" x1="0" y1="40" x2="0" y2="115" gradientUnits="userSpaceOnUse">
      <stop offset="0" stop-color="#FFFFFF" stop-opacity="0.95"/>
      <stop offset="1" stop-color="#FFFFFF" stop-opacity="0.10"/>
    </linearGradient>
    <filter id="shadow" x="-5%" y="-20%" width="110%" height="150%">
      <feDropShadow dx="0" dy="6" stdDeviation="4" flood-color="#0A1016" flood-opacity="0.28"/>
    </filter>
  </defs>
  <g id="wordmark" transform="translate(20 0)" fill="none" stroke-linecap="round" stroke-linejoin="round" filter="url(#shadow)">
    <g stroke="url(#low)" stroke-width="18" opacity="0.92">

      <path d="M83 51H33C19 51 10 60 10 74V146C10 160 19 169 33 169H83"/>
      <rect x="125" y="51" width="76" height="118" rx="22"/>
      <path d="M247 169V51L333 169V51"/>
      <path d="M382 169V51H463M382 107H452"/>
      <path d="M508 51V169H588"/>
      <path d="M632 51V138C632 158 645 169 665 169H709C729 169 742 158 742 138V51"/>
      <path d="M790 169V51L876 169V51"/>
      <path d="M928 51H1012"/>
      <path d="M928 110H1008"/>
      <path d="M928 169H1012"/>
      <path d="M1052 51H1142M1097 51V169"/>
    </g>
    <g stroke="url(#main)" stroke-width="14.5" opacity="0.95">

      <path d="M83 51H33C19 51 10 60 10 74V146C10 160 19 169 33 169H83"/>
      <rect x="125" y="51" width="76" height="118" rx="22"/>
      <path d="M247 169V51L333 169V51"/>
      <path d="M382 169V51H463M382 107H452"/>
      <path d="M508 51V169H588"/>
      <path d="M632 51V138C632 158 645 169 665 169H709C729 169 742 158 742 138V51"/>
      <path d="M790 169V51L876 169V51"/>
      <path d="M928 51H1012"/>
      <path d="M928 110H1008"/>
      <path d="M928 169H1012"/>
      <path d="M1052 51H1142M1097 51V169"/>
    </g>
    <g stroke="url(#hi)" stroke-width="4.5" opacity="0.9">

      <path d="M78 58H35C27 58 21 63 18 71"/>
      <path d="M136 58H190"/>
      <path d="M256 58L322 149V58"/>
      <path d="M390 58H458M390 107H447"/>
      <path d="M516 58V161H584"/>
      <path d="M640 58V137C640 151 649 161 664 161H710C725 161 734 151 734 137V58"/>
      <path d="M798 58L864 149V58"/>
      <path d="M935 51H1004"/>
      <path d="M935 110H1000"/>
      <path d="M935 169H1004"/>
      <path d="M1060 58H1137"/>
      <path d="M1097 58V161"/>
    </g>
  </g>
</svg>
